HIERARCHY
ROOT Root
{
  OFFSET 0.0 0.0 0.0
  CHANNELS 6 Xposition Yposition Zposition Zrotation Yrotation Xrotation
  JOINT Hips
  {
    OFFSET 0.0 100.0 0.0
    CHANNELS 6 Xposition Yposition Zposition Zrotation Yrotation Xrotation
    JOINT Spine1
    {
      OFFSET -0.013727 5.003763 -0.053727
      CHANNELS 3 Zrotation Yrotation Xrotation
      JOINT Spine2
      {
        OFFSET -0.0 7.125301 -0.029825
        CHANNELS 3 Zrotation Yrotation Xrotation
        JOINT Chest
        {
          OFFSET -1e-06 7.550063 -0.815971
          CHANNELS 3 Zrotation Yrotation Xrotation
          JOINT Neck1
          {
            OFFSET -0.181677 26.311295 -0.553348
            CHANNELS 3 Zrotation Yrotation Xrotation
            JOINT Neck2
            {
              OFFSET -3e-06 7.709397 2.302585
              CHANNELS 3 Zrotation Yrotation Xrotation
              JOINT Head
              {
                OFFSET -5e-06 6.128916 1.953709
                CHANNELS 3 Zrotation Yrotation Xrotation
                JOINT HeadEnd
                {
                  OFFSET 0.003598 16.065403 -1.835379
                  CHANNELS 3 Zrotation Yrotation Xrotation
                }
                JOINT Jaw
                {
                  OFFSET 0.002637 0.475592 3.094941
                  CHANNELS 3 Zrotation Yrotation Xrotation
                }
                JOINT LeftEye
                {
                  OFFSET 3.206381 5.380205 7.586883
                  CHANNELS 3 Zrotation Yrotation Xrotation
                }
                JOINT RightEye
                {
                  OFFSET -3.22244 5.361869 7.558234
                  CHANNELS 3 Zrotation Yrotation Xrotation
                }
              }
            }
          }
          JOINT LeftShoulder
          {
            OFFSET 1.621652 23.237164 5.113413
            CHANNELS 3 Zrotation Yrotation Xrotation
            JOINT LeftArm
            {
              OFFSET 14.919846 2e-06 -5.502326
              CHANNELS 3 Zrotation Yrotation Xrotation
              JOINT LeftForeArm
              {
                OFFSET 28.739307 0.0 -0.002588
                CHANNELS 3 Zrotation Yrotation Xrotation
                JOINT LeftHand
                {
                  OFFSET 27.093981 -1e-06 0.002609
                  CHANNELS 3 Zrotation Yrotation Xrotation
                  JOINT LeftHandThumb1
                  {
                    OFFSET 2.276482 -1.392045 3.191413
                    CHANNELS 3 Zrotation Yrotation Xrotation
                    JOINT LeftHandThumb2
                    {
                      OFFSET 4.012836 -1.828127 1.641654
                      CHANNELS 3 Zrotation Yrotation Xrotation
                      JOINT LeftHandThumb3
                      {
                        OFFSET 2.798515 0.0 -3e-06
                        CHANNELS 3 Zrotation Yrotation Xrotation
                        JOINT LeftHandThumbEnd
                        {
                          OFFSET 3.180793 -4e-06 4e-06
                          CHANNELS 3 Zrotation Yrotation Xrotation
                        }
                      }
                    }
                  }
                  JOINT LeftHandIndex1
                  {
                    OFFSET 3.247555 -0.531998 2.296169
                    CHANNELS 3 Zrotation Yrotation Xrotation
                    JOINT LeftHandIndex2
                    {
                      OFFSET 6.364578 0.01206 0.1786
                      CHANNELS 3 Zrotation Yrotation Xrotation
                      JOINT LeftHandIndex3
                      {
                        OFFSET 3.662364 0.0 0.0
                        CHANNELS 3 Zrotation Yrotation Xrotation
                        JOINT LeftHandIndex4
                        {
                          OFFSET 2.329242 4e-06 4e-06
                          CHANNELS 3 Zrotation Yrotation Xrotation
                          JOINT LeftHandIndexEnd
                          {
                            OFFSET 2.759615 -0.180537 -0.113024
                            CHANNELS 3 Zrotation Yrotation Xrotation
                          }
                        }
                      }
                    }
                  }
                  JOINT LeftHandMiddle1
                  {
                    OFFSET 3.163495 0.240981 1.000332
                    CHANNELS 3 Zrotation Yrotation Xrotation
                    JOINT LeftHandMiddle2
                    {
                      OFFSET 6.19078 -0.259278 -1.002548
                      CHANNELS 3 Zrotation Yrotation Xrotation
                      JOINT LeftHandMiddle3
                      {
                        OFFSET 4.35652 -4e-06 -1e-06
                        CHANNELS 3 Zrotation Yrotation Xrotation
                        JOINT LeftHandMiddle4
                        {
                          OFFSET 2.996877 -8e-06 0.0
                          CHANNELS 3 Zrotation Yrotation Xrotation
                          JOINT LeftHandMiddleEnd
                          {
                            OFFSET 2.304287 -0.294569 -0.031741
                            CHANNELS 3 Zrotation Yrotation Xrotation
                          }
                        }
                      }
                    }
                  }
                  JOINT LeftHandRing1
                  {
                    OFFSET 2.882643 -0.053652 -0.322543
                    CHANNELS 3 Zrotation Yrotation Xrotation
                    JOINT LeftHandRing2
                    {
                      OFFSET 5.854541 -0.486202 -1.373841
                      CHANNELS 3 Zrotation Yrotation Xrotation
                      JOINT LeftHandRing3
                      {
                        OFFSET 4.350578 0.0 3e-06
                        CHANNELS 3 Zrotation Yrotation Xrotation
                        JOINT LeftHandRing4
                        {
                          OFFSET 2.651321 7e-06 2e-06
                          CHANNELS 3 Zrotation Yrotation Xrotation
                          JOINT LeftHandRingEnd
                          {
                            OFFSET 1.936105 0.077687 -7.1e-05
                            CHANNELS 3 Zrotation Yrotation Xrotation
                          }
                        }
                      }
                    }
                  }
                  JOINT LeftHandPinky1
                  {
                    OFFSET 2.8655 -0.310005 -1.600378
                    CHANNELS 3 Zrotation Yrotation Xrotation
                    JOINT LeftHandPinky2
                    {
                      OFFSET 5.087849 -1.331141 -1.77123
                      CHANNELS 3 Zrotation Yrotation Xrotation
                      JOINT LeftHandPinky3
                      {
                        OFFSET 3.070974 4e-06 0.0
                        CHANNELS 3 Zrotation Yrotation Xrotation
                        JOINT LeftHandPinky4
                        {
                          OFFSET 1.549672 0.0 1e-06
                          CHANNELS 3 Zrotation Yrotation Xrotation
                          JOINT LeftHandPinkyEnd
                          {
                            OFFSET 1.944893 -0.157802 0.057219
                            CHANNELS 3 Zrotation Yrotation Xrotation
                          }
                        }
                      }
                    }
                  }
                }
              }
            }
          }
          JOINT RightShoulder
          {
            OFFSET -1.380118 23.180309 5.214158
            CHANNELS 3 Zrotation Yrotation Xrotation
            JOINT RightArm
            {
              OFFSET -15.037196 1.2e-05 -5.545604
              CHANNELS 3 Zrotation Yrotation Xrotation
              JOINT RightForeArm
              {
                OFFSET -28.736639 2e-06 -0.002597
                CHANNELS 3 Zrotation Yrotation Xrotation
                JOINT RightHand
                {
                  OFFSET -27.133619 -0.0 0.002613
                  CHANNELS 3 Zrotation Yrotation Xrotation
                  JOINT RightHandThumb1
                  {
                    OFFSET -2.274032 -1.383988 3.163127
                    CHANNELS 3 Zrotation Yrotation Xrotation
                    JOINT RightHandThumb2
                    {
                      OFFSET -4.011429 -1.827466 1.640914
                      CHANNELS 3 Zrotation Yrotation Xrotation
                      JOINT RightHandThumb3
                      {
                        OFFSET -2.794935 -4e-06 -3e-06
                        CHANNELS 3 Zrotation Yrotation Xrotation
                        JOINT RightHandThumbEnd
                        {
                          OFFSET -3.183852 4e-06 1e-06
                          CHANNELS 3 Zrotation Yrotation Xrotation
                        }
                      }
                    }
                  }
                  JOINT RightHandIndex1
                  {
                    OFFSET -3.253266 -0.520057 2.282866
                    CHANNELS 3 Zrotation Yrotation Xrotation
                    JOINT RightHandIndex2
                    {
                      OFFSET -6.341917 0.012471 0.178266
                      CHANNELS 3 Zrotation Yrotation Xrotation
                      JOINT RightHandIndex3
                      {
                        OFFSET -3.654871 -8e-06 -0.0
                        CHANNELS 3 Zrotation Yrotation Xrotation
                        JOINT RightHandIndex4
                        {
                          OFFSET -2.327586 0.0 1e-06
                          CHANNELS 3 Zrotation Yrotation Xrotation
                          JOINT RightHandIndexEnd
                          {
                            OFFSET -2.76179 -0.180656 -0.113078
                            CHANNELS 3 Zrotation Yrotation Xrotation
                          }
                        }
                      }
                    }
                  }
                  JOINT RightHandMiddle1
                  {
                    OFFSET -3.168106 0.246593 1.00103
                    CHANNELS 3 Zrotation Yrotation Xrotation
                    JOINT RightHandMiddle2
                    {
                      OFFSET -6.180828 -0.258836 -1.000895
                      CHANNELS 3 Zrotation Yrotation Xrotation
                      JOINT RightHandMiddle3
                      {
                        OFFSET -4.348901 0.0 -0.0
                        CHANNELS 3 Zrotation Yrotation Xrotation
                        JOINT RightHandMiddle4
                        {
                          OFFSET -3.00024 -4e-06 -2e-06
                          CHANNELS 3 Zrotation Yrotation Xrotation
                          JOINT RightHandMiddleEnd
                          {
                            OFFSET -2.30252 -0.29437 -0.031706
                            CHANNELS 3 Zrotation Yrotation Xrotation
                          }
                        }
                      }
                    }
                  }
                  JOINT RightHandRing1
                  {
                    OFFSET -2.88569 -0.067952 -0.308858
                    CHANNELS 3 Zrotation Yrotation Xrotation
                    JOINT RightHandRing2
                    {
                      OFFSET -5.854198 -0.48613 -1.373731
                      CHANNELS 3 Zrotation Yrotation Xrotation
                      JOINT RightHandRing3
                      {
                        OFFSET -4.33881 -4e-06 -0.0
                        CHANNELS 3 Zrotation Yrotation Xrotation
                        JOINT RightHandRing4
                        {
                          OFFSET -2.654903 -4e-06 4e-06
                          CHANNELS 3 Zrotation Yrotation Xrotation
                          JOINT RightHandRingEnd
                          {
                            OFFSET -1.933568 0.077527 -5.2e-05
                            CHANNELS 3 Zrotation Yrotation Xrotation
                          }
                        }
                      }
                    }
                  }
                  JOINT RightHandPinky1
                  {
                    OFFSET -2.866425 -0.342796 -1.584145
                    CHANNELS 3 Zrotation Yrotation Xrotation
                    JOINT RightHandPinky2
                    {
                      OFFSET -5.091371 -1.332055 -1.772385
                      CHANNELS 3 Zrotation Yrotation Xrotation
                      JOINT RightHandPinky3
                      {
                        OFFSET -3.062664 -4e-06 1e-06
                        CHANNELS 3 Zrotation Yrotation Xrotation
                        JOINT RightHandPinky4
                        {
                          OFFSET -1.546529 4e-06 -2e-06
                          CHANNELS 3 Zrotation Yrotation Xrotation
                          JOINT RightHandPinkyEnd
                          {
                            OFFSET -1.945119 -0.157718 0.057211
                            CHANNELS 3 Zrotation Yrotation Xrotation
                          }
                        }
                      }
                    }
                  }
                }
              }
            }
          }
        }
      }
    }
    JOINT LeftLeg
    {
      OFFSET 10.043214 -8.434526 2.595655
      CHANNELS 3 Zrotation Yrotation Xrotation
      JOINT LeftShin
      {
        OFFSET -1e-06 -43.221752 -0.802913
        CHANNELS 3 Zrotation Yrotation Xrotation
        JOINT LeftFoot
        {
          OFFSET 1e-06 -42.155094 -3.481523
          CHANNELS 3 Zrotation Yrotation Xrotation
          JOINT LeftToeBase
          {
            OFFSET 0.0 -5.059472 13.231529
            CHANNELS 3 Zrotation Yrotation Xrotation
            JOINT LeftToeEnd
            {
              OFFSET -0.009607 -1.647619 6.513017
              CHANNELS 3 Zrotation Yrotation Xrotation
            }
          }
        }
      }
    }
    JOINT RightLeg
    {
      OFFSET -10.047278 -8.29526 2.620317
      CHANNELS 3 Zrotation Yrotation Xrotation
      JOINT RightShin
      {
        OFFSET 1e-06 -43.362206 -0.805556
        CHANNELS 3 Zrotation Yrotation Xrotation
        JOINT RightFoot
        {
          OFFSET 2e-06 -42.117393 -3.478398
          CHANNELS 3 Zrotation Yrotation Xrotation
          JOINT RightToeBase
          {
            OFFSET -0.0 -5.079609 13.284196
            CHANNELS 3 Zrotation Yrotation Xrotation
            JOINT RightToeEnd
            {
              OFFSET 0.009532 -1.634378 6.460591
              CHANNELS 3 Zrotation Yrotation Xrotation
            }
          }
        }
      }
    }
  }
}
MOTION
Frames: 5
Frame Time: 0.03333333333333333
0.0 0.0 0.0 0.0 -0.0 0.0 -0.883606 98.668488 133.768524 3.560899 -0.072888 6.354246 -4.197151 -1.029395 -3.486621 -0.78191 -0.553762 -5.931036 -0.14099 -2.239166 11.132362 4.837806 1.11396 0.607863 0.28992 3.914057 -3.717101 -5.950399 5.534912 -15.122613 7.7e-05 -2.2e-05 6e-06 0.031448 -0.077514 0.060134 0.667581 -3.844748 -10.601477 -0.611353 3.692239 -10.575896 -10.51739 -2.35107 14.38211 -55.696117 -25.248648 39.830883 -0.265023 -32.134109 0.16583 4.758368 6.208746 -6.933447 -5.882106 9.861287 0.702588 -10.936872 -0.360574 7.156204 -0.0 8.774826 -0.0 -15.520761 18.681709 6.676309 -1.844032 2.498504 -2.507279 -10.163601 4.678946 4.621109 -20.976023 -3e-06 1e-06 -21.226286 2.451696 -3.594002 0.0 -6e-06 0.0 -1.362682 2.240798 -0.746324 -21.334915 0.58491 3.008322 -13.821213 -2e-06 2e-06 -23.887171 -0.249079 -0.839485 -60.467598 2.354848 -0.875688 -0.294024 1.679688 0.833254 -14.218208 0.093214 1.30058 -34.212048 -0.287563 0.967171 -20.033215 0.964537 1.212842 0.0 0.0 0.0 -3.440388 0.788232 0.501657 -15.928185 -3.167309 2.999707 -6.338827 0.0 1e-06 -18.123447 3.648183 -4.905671 -5e-06 -0.0 -0.0 15.424862 3.772511 12.876829 61.187115 -5.104527 6.271612 0.508997 42.847176 0.274704 4.13119 -4.936501 -10.64541 2.243542 -5.255037 -3.180158 14.282894 -0.826595 6.952504 -2e-06 -12.690607 0.0 16.376659 -17.99251 2.640683 1.665666 -1.955922 -2.878299 4.7278 -4.170589 4.993925 11.020529 3e-06 -1e-06 12.109055 -3.735717 -2.866784 -0.0 0.0 0.0 1.291986 -1.92855 -1.49809 14.800132 0.567468 3.865609 14.242577 -1.341737 -6.660658 19.631973 0.143925 -0.648246 50.114918 -0.741186 -6.391069 0.353029 -1.511151 -0.03194 20.222799 3.684309 2.316631 18.787283 3e-06 -1e-06 10.751632 -0.479868 1.397906 1e-06 -0.0 -0.0 3.273808 0.305947 -0.580111 21.486822 11.830379 2.266134 8.16293 1e-06 -1e-06 18.39909 -3.798988 -4.940578 3e-06 0.0 -0.0 -8.261847 4.280138 -12.503405 0.071528 -0.008757 16.755684 2.4049 3.273556 -11.118584 1.609092 -1.879825 -0.711138 -0.0 0.0 2e-06 -5.68312 -16.129251 -35.615013 0.166422 0.044936 50.106121 5.274848 14.90042 2.607428 -1.381845 0.853055 -4.41129 0.0 0.0 -1e-06 
0.0 0.0 0.0 0.0 -0.0 0.0 -0.877181 98.565567 136.519516 3.58935 0.19868 7.050208 -4.291929 -1.004496 -3.68505 -0.753733 -0.811534 -5.954685 0.0325 -2.303525 11.250941 5.082724 1.063557 -0.105266 0.251366 3.78615 -3.688846 -5.970022 5.613629 -15.068926 7.7e-05 -2.2e-05 6e-06 0.019116 -0.090112 0.07544 0.657458 -3.859843 -10.579634 -0.62565 3.682917 -10.546535 -10.523811 -2.701717 14.216131 -55.168285 -26.284239 39.785435 -0.250345 -33.012745 0.196456 4.74222 6.526524 -7.066761 -5.882112 9.861293 0.70259 -10.936881 -0.360575 7.156207 1e-06 8.774833 0.0 -15.539924 18.757956 6.653654 -1.844036 2.498507 -2.507279 -10.163611 4.67895 4.621107 -20.976044 -5e-06 -2e-06 -21.226313 2.451697 -3.594006 1e-06 -6e-06 0.0 -1.362683 2.2408 -0.746324 -21.334934 0.584909 3.008322 -13.821227 -3e-06 -0.0 -23.887194 -0.249083 -0.839486 -60.485985 2.49832 -1.044981 -0.294024 1.679688 0.833257 -14.218223 0.093215 1.300577 -34.212082 -0.287569 0.967164 -20.033232 0.964533 1.212842 0.0 1e-06 1e-06 -3.440392 0.788235 0.501655 -15.928201 -3.167312 2.999705 -6.338832 -1e-06 -0.0 -18.123466 3.648184 -4.905679 -5e-06 1e-06 -0.0 15.900657 3.681359 12.677393 60.590645 -5.157052 6.023078 0.543897 43.364887 0.30513 4.084289 -4.904464 -10.438572 2.243543 -5.25504 -3.180159 14.2829 -0.826595 6.952507 -2e-06 -12.690612 0.0 16.381353 -17.866684 2.62574 1.665667 -1.955923 -2.8783 4.727802 -4.17059 4.993926 11.020536 3e-06 -1e-06 12.10906 -3.735718 -2.866786 1e-06 0.0 0.0 1.291986 -1.92855 -1.49809 14.800139 0.567469 3.86561 14.242582 -1.341737 -6.660661 19.631983 0.143927 -0.648245 50.188931 -0.743219 -6.40129 0.353029 -1.511152 -0.03194 20.222805 3.684313 2.316631 18.787287 4e-06 -1e-06 10.751635 -0.479868 1.397907 -0.0 0.0 -0.0 3.273809 0.305947 -0.580111 21.486828 11.830384 2.266135 8.162931 2e-06 -1e-06 18.399092 -3.798986 -4.940578 3e-06 0.0 -1e-06 -8.184118 4.616727 -10.725146 0.087453 0.021646 15.559263 2.22589 2.570972 -12.327829 1.610207 -1.883561 -0.731521 0.0 0.0 2e-06 -4.660161 -14.638069 -37.692524 0.241353 0.154195 39.746136 6.17766 12.999482 3.486852 -1.42051 0.935681 -4.597283 -0.0 0.0 -1e-06 
0.0 0.0 0.0 0.0 -0.0 0.0 -0.924554 98.33754 139.321671 3.57033 0.490328 7.698369 -4.283838 -0.945362 -3.873153 -0.720369 -0.987078 -6.021598 0.120582 -2.341196 11.39611 5.35117 1.047028 -0.692138 0.215554 3.624127 -3.663533 -6.021424 5.570564 -15.1515 7.7e-05 -2.2e-05 6e-06 0.007393 -0.090843 0.083716 0.656759 -3.861049 -10.579188 -0.648286 3.684441 -10.542809 -10.546227 -2.974198 14.168854 -54.789631 -27.13973 39.261086 -0.2871 -34.008835 0.260669 4.912731 6.621351 -7.030686 -5.882106 9.861286 0.702589 -10.936873 -0.360577 7.156208 1e-06 8.774828 -0.0 -15.569198 18.81365 6.576897 -1.844032 2.498505 -2.507277 -10.163601 4.678945 4.621109 -20.976025 -5e-06 2e-06 -21.226286 2.451697 -3.594 1e-06 -7e-06 -1e-06 -1.362681 2.240798 -0.746323 -21.334917 0.584907 3.008324 -13.821215 -3e-06 3e-06 -23.887177 -0.24908 -0.839481 -60.490437 2.630593 -1.247634 -0.294025 1.679688 0.833255 -14.21821 0.093215 1.300582 -34.212048 -0.287564 0.967172 -20.033216 0.964536 1.212845 1e-06 1e-06 1e-06 -3.440389 0.788232 0.501654 -15.928189 -3.167312 2.999708 -6.338828 -1e-06 1e-06 -18.123447 3.648182 -4.905671 -4e-06 1e-06 -1e-06 16.196327 3.628023 12.509693 60.0882 -5.19176 5.94978 0.445425 43.791534 0.252536 4.048368 -4.903743 -9.827957 2.243543 -5.255041 -3.180159 14.282898 -0.826596 6.952506 -2e-06 -12.690614 0.0 16.374462 -17.78997 2.625035 1.665668 -1.955923 -2.8783 4.727801 -4.17059 4.993926 11.020534 3e-06 -2e-06 12.109059 -3.735718 -2.866787 -0.0 0.0 -0.0 1.291987 -1.928551 -1.498091 14.800139 0.567468 3.865609 14.242581 -1.341737 -6.660663 19.631979 0.143927 -0.648246 50.340618 -0.732262 -6.405938 0.353029 -1.511151 -0.03194 20.222803 3.684311 2.316631 18.787287 4e-06 -2e-06 10.751636 -0.479868 1.397906 -0.0 -1e-06 -1e-06 3.273809 0.305947 -0.580111 21.486824 11.830383 2.266133 8.162933 3e-06 -0.0 18.399092 -3.798989 -4.940579 3e-06 0.0 -0.0 -7.966138 4.879367 -9.080716 0.102032 0.051582 14.679202 1.982392 1.966788 -13.706032 1.611234 -1.901431 -0.814379 0.0 0.0 2e-06 -3.870737 -12.979892 -38.882244 0.28189 0.191285 28.80435 7.020344 10.767376 4.35498 -1.422969 1.040643 -4.570231 0.0 -0.0 -1e-06 
0.0 0.0 0.0 0.0 -0.0 0.0 -1.064542 97.943512 142.222488 3.565361 0.863632 8.064404 -4.232057 -0.84886 -3.944681 -0.700279 -1.086695 -6.094695 0.119636 -2.382426 11.53519 5.645547 1.043793 -0.989896 0.170395 3.428218 -3.655573 -6.131165 5.388207 -15.338744 7.7e-05 -2.2e-05 6e-06 0.007155 -0.064253 0.072366 0.670035 -3.831045 -10.602182 -0.66195 3.710032 -10.560397 -10.51716 -3.147498 14.179703 -54.654282 -27.63607 38.678509 -0.256442 -35.065937 0.26685 5.125793 6.495655 -6.897106 -5.882109 9.861288 0.70259 -10.936871 -0.360575 7.156204 0.0 8.774826 -1e-06 -15.586413 18.850515 6.517527 -1.844033 2.498505 -2.507277 -10.1636 4.678948 4.621108 -20.976025 -2e-06 -2e-06 -21.22629 2.451698 -3.594004 1e-06 -6e-06 -1e-06 -1.362682 2.240798 -0.746322 -21.334913 0.584912 3.008321 -13.821213 -2e-06 1e-06 -23.887171 -0.249077 -0.839486 -60.456135 2.682405 -1.427468 -0.294025 1.679688 0.833255 -14.21821 0.093216 1.300579 -34.212051 -0.287564 0.967166 -20.033211 0.964535 1.212843 1e-06 -0.0 1e-06 -3.440388 0.788234 0.501654 -15.928185 -3.167308 2.999704 -6.338827 0.0 0.0 -18.123451 3.648185 -4.905674 -4e-06 1e-06 -1e-06 16.364792 3.564055 12.431736 59.684395 -5.290483 5.831165 0.397137 44.130966 0.19735 4.124089 -4.898634 -9.088675 2.243541 -5.255037 -3.180157 14.282887 -0.826594 6.9525 -2e-06 -12.690605 -2e-06 16.331646 -17.763443 2.659452 1.665666 -1.955921 -2.878298 4.727798 -4.170588 4.993921 11.020526 2e-06 -2e-06 12.109052 -3.735717 -2.866785 1e-06 0.0 0.0 1.291986 -1.92855 -1.498089 14.800125 0.567469 3.865605 14.242574 -1.341737 -6.660658 19.631969 0.143926 -0.648246 50.456169 -0.748704 -6.445009 0.353029 -1.51115 -0.03194 20.222786 3.684311 2.316628 18.78727 5e-06 -3e-06 10.751625 -0.479867 1.397906 1e-06 -1e-06 -0.0 3.273806 0.305946 -0.580111 21.486809 11.830378 2.266133 8.162928 3e-06 -1e-06 18.39908 -3.798985 -4.940578 3e-06 0.0 -1e-06 -7.631361 5.096274 -7.25435 0.106501 0.019904 14.215359 1.679814 1.350153 -15.375898 1.619327 -1.906562 -0.936857 -0.0 0.0 2e-06 -3.112989 -11.813382 -39.513138 0.281216 0.118745 19.625324 8.20569 8.77208 4.249924 -1.383885 1.10241 -4.57191 -0.0 -0.0 -1e-06 
0.0 0.0 0.0 0.0 -0.0 0.0 -1.305149 97.396172 145.269852 3.568967 1.262248 8.123627 -4.12786 -0.728895 -3.934938 -0.693676 -1.138711 -6.148747 0.017845 -2.429401 11.644156 5.959903 1.023143 -0.950126 0.143125 3.264483 -3.656291 -6.318461 5.225471 -15.542625 7.7e-05 -2.2e-05 6e-06 0.014888 -0.036626 0.056885 0.682195 -3.797739 -10.619318 -0.658144 3.733995 -10.567822 -10.455316 -3.185686 14.171614 -54.679428 -27.669765 38.283073 -0.187379 -36.126286 0.177943 5.228428 6.189206 -6.66663 -5.882109 9.861288 0.70259 -10.936875 -0.360573 7.156208 0.0 8.774827 0.0 -15.603463 18.872652 6.492487 -1.844035 2.498505 -2.507279 -10.163603 4.678946 4.62111 -20.97603 -3e-06 0.0 -21.226295 2.451696 -3.594004 1e-06 -6e-06 -1e-06 -1.362682 2.240797 -0.746323 -21.334921 0.584912 3.008324 -13.821218 -2e-06 1e-06 -23.887182 -0.24908 -0.839487 -60.459953 2.656501 -1.504007 -0.294025 1.679687 0.833257 -14.218214 0.093216 1.300579 -34.212063 -0.287564 0.967167 -20.033218 0.964536 1.212842 1e-06 -0.0 1e-06 -3.440391 0.788234 0.501657 -15.928192 -3.167308 2.999708 -6.338829 0.0 1e-06 -18.123457 3.648183 -4.905674 -4e-06 1e-06 -1e-06 16.548983 3.490811 12.532762 59.245438 -5.433507 5.762311 0.296988 44.375347 0.128572 4.423102 -4.858911 -8.687468 2.243542 -5.255037 -3.180158 14.282889 -0.826594 6.952499 -2e-06 -12.690605 0.0 16.27738 -17.748205 2.68943 1.665666 -1.955921 -2.878299 4.727798 -4.170588 4.993923 11.020526 3e-06 -2e-06 12.109052 -3.735716 -2.866786 1e-06 0.0 0.0 1.291986 -1.92855 -1.498089 14.800127 0.567468 3.865606 14.242571 -1.341736 -6.660659 19.631969 0.143927 -0.648247 50.402088 -0.789515 -6.546029 0.353029 -1.511151 -0.03194 20.222788 3.684311 2.316628 18.78727 5e-06 -2e-06 10.751624 -0.479868 1.397904 1e-06 -1e-06 -1e-06 3.273807 0.305947 -0.580111 21.486813 11.830376 2.26613 8.162926 2e-06 -1e-06 18.399076 -3.798984 -4.940576 3e-06 0.0 -1e-06 -7.163823 5.171454 -5.033863 0.086969 -0.067772 13.859192 1.290894 0.729799 -17.217361 1.637471 -1.899803 -1.117922 -0.0 -0.0 2e-06 -2.169222 -11.225605 -40.127827 0.243738 0.074219 13.920159 9.346679 7.094904 3.073118 -1.350582 1.0925 -4.600214 -0.0 -0.0 -0.0 
